<?xml version="1.0" standalone="no"?><!DOCTYPE svg PUBLIC "-//W3C//DTD SVG 1.1//EN" "http://www.w3.org/Graphics/SVG/1.1/DTD/svg11.dtd"><svg t="1638841974965" class="icon" viewBox="0 0 1024 1024" version="1.1" xmlns="http://www.w3.org/2000/svg" p-id="1381" xmlns:xlink="http://www.w3.org/1999/xlink" width="200" height="200"><defs><style type="text/css"></style></defs><path d="M855.156658 0H168.843342A169.050734 169.050734 0 0 0 0 168.843342v686.313316A169.050734 169.050734 0 0 0 168.843342 1024h686.313316A169.050734 169.050734 0 0 0 1024 855.156658V168.843342A169.050734 169.050734 0 0 0 855.156658 0zM977.336709 855.156658A122.309671 122.309671 0 0 1 855.156658 977.336709H168.843342A122.309671 122.309671 0 0 1 46.663291 855.156658v-16.64324l930.673418-59.780861zM220.535899 426.009924l-64.110177-76.450025 75.698227-6.273621 63.928709 76.450026z m76.320405 102.088911l-74.920507 6.221773-64.317569-76.424102 75.179747-6.247696z m44.92638 26.36476v-225.539241l66.002632-5.495898v225.53924l85.238279-7.155038-20.324456 47.052152-47.052152 4.096 65.484152 97.915139-75.179747 6.221773-47.648405-71.29114-70.461569 81.116355L130.786835 720.688608v-44.330127l121.40233-10.11038 54.440506-63.513924-175.816912 14.595241v-45.367089zM870.892557 295.534177l-0.181468 57.369924-111.680811 77.772152 132.057114 52.314734-123.528101 10.24-64.810126-23.48719-60.014178 33.856811-115.07686 9.695595 116.917468-70.124557-94.104304-45.88557 97.396658-8.088304 50.914836 21.17995 91.563747-63.928709-168.63595 13.895291-15.087797 17.757974-80.364557 6.662481 64.654582-80.027544 74.350177-6.169924-12.184303 15.061874z m-0.881418 262.869874l-134.571747 11.173265V635.139241l-60.195645 48.115037-33.882734 2.825722 0.155544-44.563443 27.894278-2.333165 0.181469-64.084253-140.378734 11.665823v-44.407899l140.378734-11.639898v-25.924051l65.821164-5.444051v25.924051l154.68881-12.962025z m14.750785 100.066835l-66.028557 5.469975-57.525468-85.134583 65.821164-5.44405z m-248.456101-67.869164l-47.207696 94.441316-61.958481 5.18481 46.818835-94.415392zM977.336709 195.441418L46.663291 255.222278V168.843342A122.309671 122.309671 0 0 1 168.843342 46.663291h686.313316A122.309671 122.309671 0 0 1 977.336709 168.843342z" p-id="1382"></path></svg>