<?xml version="1.0" standalone="no"?><!DOCTYPE svg PUBLIC "-//W3C//DTD SVG 1.1//EN" "http://www.w3.org/Graphics/SVG/1.1/DTD/svg11.dtd"><svg t="1640140960245" class="icon" viewBox="0 0 1204 1024" version="1.1" xmlns="http://www.w3.org/2000/svg" p-id="1876" xmlns:xlink="http://www.w3.org/1999/xlink" width="235.15625" height="200"><defs><style type="text/css"></style></defs><path d="M963.755919 813.178393m-210.821608 0a210.821607 210.821607 0 1 0 421.643215 0 210.821607 210.821607 0 1 0-421.643215 0Z" fill="#6A9EFF" p-id="1877"></path><path d="M674.117148 8.231379c43.700307-15.35986 87.400615-9.215916 124.836509 18.401715 41.802913 26.412936 66.469041 75.293431 65.806458 127.848246l-0.240939 7.198052v687.398909c0 58.307233-24.997419 107.39855-68.667609 138.088152a138.148387 138.148387 0 0 1-78.003994 24.545659c-13.040822 0-28.189861-2.108216-41.923383-6.384883l-8.041338-2.800916h-3.10209l-362.040934-165.7359c-24.997419-9.185799-46.832514-24.545659-62.433313-46.019345-17.016315 8.37263-36.622725 11.655423-63.487421 12.197536l-8.282278 0.090352H127.968716c-69.6916 0-124.655805-54.934087-127.818129-125.499091L0 671.08463V358.104895c0-71.498642 52.916223-128.510828 121.674185-131.823739l6.294531-0.150587h40.5681c31.201598 0 53.06681 6.143944 71.769699 12.287888 14.185282-19.516057 33.550753-36.532373 58.036177-46.380754l7.529343-2.710563L674.08703 8.231379z m79.961624 97.158644l-8.734038-6.023475c-11.745775-8.673803-22.949438-11.022958-36.622725-7.348639l-0.602348 0.180704-362.402343 178.174376-5.782535 2.590094-5.933122 2.168451c-6.174061 2.047981-12.046949 6.143944-17.437959 12.348123l-3.162324 4.00561a90.352117 90.352117 0 0 1-101.224489 32.767701c-14.908099-4.909132-24.816715-7.1077-37.194955-7.649812l-6.445118-0.150587H127.968716c-19.787114 0-35.5385 15.028569-37.435894 37.104603L90.352117 358.104895v313.009852c0 23.009673 14.516574 39.453758 33.731458 41.411387l3.885141 0.210822h40.5681c18.34148 0 26.985166-1.14446 30.870307-2.590094l1.054108-0.421644a90.352117 90.352117 0 0 1 112.940147 27.979039c3.614085 4.939249 8.914742 9.185799 16.082677 12.49871l7.710047 3.102089 3.132207 1.385399 351.19868 160.7063 3.011737 0.813169 6.415001 2.258803c4.12608 1.626338 11.504836 2.921385 16.865728 2.921385 9.035212 0 19.064297-3.192441 26.111762-8.131691 17.980071-12.649296 28.521152-31.924415 30.02702-57.584416l0.210822-6.565587V161.679392l0.12047-5.119954c1.234812-21.714626-7.1077-40.869274-20.208757-51.169415zM989.355685 275.221886c9.336385 6.143944 18.733006 9.185799 28.069391 9.185799 15.630916 0 28.099509-6.113827 37.466012-18.371598l118.602213-159.622074c15.600799-21.473687 9.336385-49.091317-9.366503-64.451177-21.865212-15.329743-49.934604-9.185799-65.535403 9.215916l-121.734419 159.591957c-12.468592 21.473687-9.336385 49.091317 12.498709 64.451177zM1054.891088 790.771068c-15.600799-21.473687-43.67019-24.545659-65.535403-9.215916-21.865212 15.35986-24.997419 42.97749-9.366503 64.451177l118.602213 159.591956c9.336385 12.257771 21.835095 18.401715 37.435894 18.401715 9.366503 0 18.733006-3.071972 28.099509-9.215916 21.835095-15.35986 24.967302-42.947373 9.336385-64.451177l-118.572095-159.561839zM1157.892502 474.659126h-149.803811c-24.997419 0-46.832514 21.503804-46.832514 46.07958 0 24.515541 21.835095 46.019345 46.832514 46.019345h149.803811c24.967302 0 46.802397-21.503804 46.802396-46.049462s-18.733006-46.019345-46.802396-46.019345z" fill="#000000" p-id="1878"></path></svg>