<?xml version="1.0" standalone="no"?><!DOCTYPE svg PUBLIC "-//W3C//DTD SVG 1.1//EN" "http://www.w3.org/Graphics/SVG/1.1/DTD/svg11.dtd"><svg t="1639999154807" class="icon" viewBox="0 0 1024 1024" version="1.1" xmlns="http://www.w3.org/2000/svg" p-id="6252" xmlns:xlink="http://www.w3.org/1999/xlink" width="200" height="200"><defs><style type="text/css"></style></defs><path d="M0 0h1024v1024H0z" fill="#FFFFFF" p-id="6253"></path><path d="M700 984H120c-44.112 0-80-35.888-80-80V120c0-44.112 35.888-80 80-80h580c44.112 0 80 35.888 80 80v784c0 44.112-35.888 80-80 80z" fill="#D8DDE3" p-id="6254"></path><path d="M120 80c-22.056 0-40 17.944-40 40v784c0 22.056 17.944 40 40 40h580c22.056 0 40-17.944 40-40V120c0-22.056-17.944-40-40-40H120m0-80h580c66.274 0 120 53.726 120 120v784c0 66.274-53.726 120-120 120H120c-66.274 0-120-53.726-120-120V120C0 53.726 53.726 0 120 0z" fill="#505873" p-id="6255"></path><path d="M704 984c-154.392 0-280-125.608-280-280s125.608-280 280-280 280 125.608 280 280-125.608 280-280 280z" fill="#FFFFFF" p-id="6256"></path><path d="M704 464c-132.336 0-240 107.664-240 240s107.664 240 240 240 240-107.664 240-240-107.664-240-240-240m0-80c176.732 0 320 143.268 320 320s-143.268 320-320 320-320-143.268-320-320 143.268-320 320-320z" fill="#505873" p-id="6257"></path><path d="M226 210h368a40 40 0 0 1 0 80H226a40 40 0 0 1 0-80z" fill="#505873" p-id="6258"></path><path d="M226 390h176a40 40 0 0 1 0 80h-176a40 40 0 0 1 0-80z" fill="#FF402A" p-id="6259"></path><path d="M704 678h136a26 26 0 0 1 0 52h-136a26 26 0 0 1 0-52z" fill="#FF402A" p-id="6260"></path><path d="M730 612v92a26 26 0 0 1-52 0v-92a26 26 0 0 1 52 0z" fill="#FF402A" p-id="6261"></path></svg>