<?xml version="1.0" standalone="no"?><!DOCTYPE svg PUBLIC "-//W3C//DTD SVG 1.1//EN" "http://www.w3.org/Graphics/SVG/1.1/DTD/svg11.dtd"><svg t="1640086965410" class="icon" viewBox="0 0 1107 1024" version="1.1" xmlns="http://www.w3.org/2000/svg" p-id="5162" xmlns:xlink="http://www.w3.org/1999/xlink" width="216.2109375" height="200"><defs><style type="text/css"></style></defs><path d="M428.972973 595.027027m-428.972973 0a428.972973 428.972973 0 1 0 857.945946 0 428.972973 428.972973 0 1 0-857.945946 0Z" fill="#DFF5E3" p-id="5163"></path><path d="M691.891892 664.216216c-240.999784-4.511135-318.519351-180.957405-418.248649-333.312C373.372541 188.928 462.612757 0 691.891892 0s331.734486 193.176216 415.135135 332.108108c-80.480865 128.442811-185.897514 336.397838-415.135135 332.108108z m-1.715892-608.864865c-197.991784 0-261.216865 157.446919-347.32973 275.760433C428.972973 458.032432 513.688216 608.864865 690.176 608.864865c197.977946 0 291.549405-174.024649 358.4-276.756757-74.226162-116.639135-160.422054-276.756757-358.4-276.756757z" fill="#040405" p-id="5164"></path><path d="M719.567568 235.243243a69.106162 69.106162 0 0 0 127.308108 37.445189 166.524541 166.524541 0 1 1-95.481081-95.481081A69.050811 69.050811 0 0 0 719.567568 235.243243z" fill="#3CC451" p-id="5165"></path></svg>