<?xml version="1.0" standalone="no"?><!DOCTYPE svg PUBLIC "-//W3C//DTD SVG 1.1//EN" "http://www.w3.org/Graphics/SVG/1.1/DTD/svg11.dtd"><svg t="1640055976419" class="icon" viewBox="0 0 1024 1024" version="1.1" xmlns="http://www.w3.org/2000/svg" p-id="1548" xmlns:xlink="http://www.w3.org/1999/xlink" width="200" height="200"><defs><style type="text/css"></style></defs><path d="M0 772.608a512 212.992 0 1 0 1024 0 512 212.992 0 1 0-1024 0z" fill="#80D3A8" p-id="1549"></path><path d="M414.72 755.2L220.16 645.12c-6.144-2.048-12.288 0-16.384 4.096l-82.944 132.608-1.536 4.608v3.584c0.512 5.632 5.12 10.24 11.776 10.24L243.2 806.4c4.096 0 6.144 2.048 8.192 4.096L320 901.632c6.144 6.144 16.384 6.144 20.48 0l78.848-130.56c3.584-5.632 1.536-11.776-4.608-15.872z m488.96 24.576l-82.944-132.608c-4.096-6.144-10.24-8.192-16.384-4.096L609.792 752.64c-6.144 4.096-8.192 10.24-4.096 16.384l78.848 130.56c4.096 6.144 14.336 6.144 20.48 0l68.096-90.624c2.048-2.048 4.096-4.096 8.192-4.096l112.128-6.144c10.24 0 14.336-10.24 10.24-18.944z m-68.608-233.984V249.344c0-23.04-12.288-43.52-31.232-53.76L541.184 46.592c-18.432-10.24-43.52-10.24-61.952 0l-261.12 146.944c-18.432 10.24-31.232 31.232-31.232 51.712v296.448c0 20.48 12.288 41.472 31.232 51.712L480.768 742.4c18.432 10.24 43.52 10.24 61.952 0l261.12-144.896c18.944-10.24 31.232-31.232 31.232-51.712zM679.936 322.048L526.848 543.744c-4.096 6.144-12.288 10.24-20.48 10.24s-16.384-4.096-20.48-10.24L337.92 322.048c-8.192-10.24-4.096-27.136 6.144-33.28 10.24-6.144 27.136-4.096 33.28 6.144l126.464 190.464 132.608-192.512c8.192-10.24 23.04-14.336 33.28-6.144 16.384 10.24 18.432 25.088 10.24 35.328z" fill="#00A651" p-id="1550"></path></svg>